# xmcd
#
# Track frame offsets: 
#        150
#        19795
#        44487
#        68952
#        90352
#        115207
#        136740
#        164962
#        183520
#        203552
#        220602
#        250775
#
# Disc length: 3645 seconds
#
# Revision: 1
# Processed by: cddbd v1.5.2PL0 Copyright (c) Steve Scherf et al.
# Submitted via: ExactAudioCopy v0.99pb5
#
DISCID=a50e3b0c
DTITLE=Huong Lan - Tinh Nong Chay
DYEAR=2000
DGENRE=Tru Tinh
TTITLE0=Canh hoa thoi loan
TTITLE1=Mai tro lai Hue
TTITLE2=Tuong nhu con nguoi yeu
TTITLE3=Hoa hoc tro (Voi Tuan Vu)
TTITLE4=Cho tinh cu
TTITLE5=Dau tinh sau
TTITLE6=Cho dong
TTITLE7=Loi gia biet
TTITLE8=Giot nuoc mat nga
TTITLE9=Tinh nong chay
TTITLE10=Cay dang bo moi
TTITLE11=Chuyen do khong em
EXTD=
EXTT0=
EXTT1=
EXTT2=
EXTT3=
EXTT4=
EXTT5=
EXTT6=
EXTT7=
EXTT8=
EXTT9=
EXTT10=
EXTT11=
PLAYORDER=
